<mxfile host="Electron" agent="Mozilla/5.0 (X11; Linux x86_64) AppleWebKit/537.36 (KHTML, like Gecko) draw.io/26.1.1 Chrome/132.0.6834.210 Electron/34.3.3 Safari/537.36" version="26.1.1">
  <diagram name="Page-1" id="-Pfgxmdj35-Sdl_T7dFO">
    <mxGraphModel dx="2074" dy="1235" grid="1" gridSize="10" guides="1" tooltips="1" connect="1" arrows="1" fold="1" page="1" pageScale="1" pageWidth="850" pageHeight="1100" math="0" shadow="0">
      <root>
        <mxCell id="0" />
        <mxCell id="1" parent="0" />
        <mxCell id="ix8DdHgYmFvAvDDHEddg-18" style="edgeStyle=orthogonalEdgeStyle;rounded=0;orthogonalLoop=1;jettySize=auto;html=1;entryX=0;entryY=0.5;entryDx=0;entryDy=0;" edge="1" parent="1" source="ix8DdHgYmFvAvDDHEddg-10" target="ix8DdHgYmFvAvDDHEddg-15">
          <mxGeometry relative="1" as="geometry">
            <Array as="points">
              <mxPoint x="720" y="180" />
            </Array>
          </mxGeometry>
        </mxCell>
        <mxCell id="ix8DdHgYmFvAvDDHEddg-52" style="edgeStyle=orthogonalEdgeStyle;rounded=0;orthogonalLoop=1;jettySize=auto;html=1;entryX=1;entryY=0.5;entryDx=0;entryDy=0;" edge="1" parent="1" source="ix8DdHgYmFvAvDDHEddg-10" target="ix8DdHgYmFvAvDDHEddg-30">
          <mxGeometry relative="1" as="geometry" />
        </mxCell>
        <mxCell id="ix8DdHgYmFvAvDDHEddg-53" style="edgeStyle=orthogonalEdgeStyle;rounded=0;orthogonalLoop=1;jettySize=auto;html=1;entryX=1;entryY=0.5;entryDx=0;entryDy=0;" edge="1" parent="1" source="ix8DdHgYmFvAvDDHEddg-10" target="ix8DdHgYmFvAvDDHEddg-31">
          <mxGeometry relative="1" as="geometry" />
        </mxCell>
        <mxCell id="ix8DdHgYmFvAvDDHEddg-54" style="edgeStyle=orthogonalEdgeStyle;rounded=0;orthogonalLoop=1;jettySize=auto;html=1;entryX=1;entryY=0.5;entryDx=0;entryDy=0;" edge="1" parent="1" source="ix8DdHgYmFvAvDDHEddg-10" target="ix8DdHgYmFvAvDDHEddg-32">
          <mxGeometry relative="1" as="geometry" />
        </mxCell>
        <mxCell id="ix8DdHgYmFvAvDDHEddg-55" style="edgeStyle=orthogonalEdgeStyle;rounded=0;orthogonalLoop=1;jettySize=auto;html=1;entryX=1;entryY=0.5;entryDx=0;entryDy=0;" edge="1" parent="1" source="ix8DdHgYmFvAvDDHEddg-10" target="ix8DdHgYmFvAvDDHEddg-34">
          <mxGeometry relative="1" as="geometry" />
        </mxCell>
        <mxCell id="ix8DdHgYmFvAvDDHEddg-56" style="edgeStyle=orthogonalEdgeStyle;rounded=0;orthogonalLoop=1;jettySize=auto;html=1;entryX=1;entryY=0.5;entryDx=0;entryDy=0;" edge="1" parent="1" source="ix8DdHgYmFvAvDDHEddg-10" target="ix8DdHgYmFvAvDDHEddg-33">
          <mxGeometry relative="1" as="geometry" />
        </mxCell>
        <mxCell id="ix8DdHgYmFvAvDDHEddg-10" value="&lt;p style=&quot;margin: 4px 0px 0px; text-align: center;&quot;&gt;&lt;i&gt;&amp;lt;&amp;lt;Aggregate&lt;/i&gt;&lt;i style=&quot;background-color: transparent; color: light-dark(rgb(0, 0, 0), rgb(255, 255, 255));&quot;&gt;&amp;gt;&amp;gt;&lt;/i&gt;&lt;/p&gt;&lt;p style=&quot;margin: 4px 0px 0px; text-align: center;&quot;&gt;&lt;b&gt;Event&lt;/b&gt;&lt;/p&gt;&lt;hr size=&quot;1&quot; style=&quot;border-style:solid;&quot;&gt;&lt;p style=&quot;margin: 0px 0px 0px 4px;&quot;&gt;+ Id: EventID&lt;/p&gt;&lt;p style=&quot;margin: 0px 0px 0px 4px;&quot;&gt;# title : EventTitle&lt;br&gt;&lt;span style=&quot;background-color: transparent; color: light-dark(rgb(0, 0, 0), rgb(255, 255, 255));&quot;&gt;# description : EventDescription&lt;/span&gt;&lt;/p&gt;&lt;p style=&quot;margin: 0px 0px 0px 4px;&quot;&gt;&lt;span style=&quot;background-color: transparent; color: light-dark(rgb(0, 0, 0), rgb(255, 255, 255));&quot;&gt;# status : EventStatus&lt;/span&gt;&lt;/p&gt;&lt;p style=&quot;margin: 0px 0px 0px 4px;&quot;&gt;&lt;span style=&quot;background-color: transparent; color: light-dark(rgb(0, 0, 0), rgb(255, 255, 255));&quot;&gt;# visibility : EventVisibility&lt;br&gt;# maxGuests : int&lt;br&gt;# timeRange : EventTimeRange&lt;/span&gt;&lt;/p&gt;&lt;p style=&quot;margin: 0px 0px 0px 4px;&quot;&gt;&lt;span style=&quot;background-color: transparent; color: light-dark(rgb(0, 0, 0), rgb(255, 255, 255));&quot;&gt;# participants : List&amp;lt;GuestId&amp;gt;&lt;/span&gt;&lt;/p&gt;&lt;p style=&quot;margin: 0px 0px 0px 4px;&quot;&gt;&lt;span style=&quot;background-color: transparent; color: light-dark(rgb(0, 0, 0), rgb(255, 255, 255));&quot;&gt;# _invitations : List&amp;lt;Invitations&lt;/span&gt;&lt;/p&gt;&lt;hr size=&quot;1&quot; style=&quot;border-style:solid;&quot;&gt;&lt;p style=&quot;margin:0px;margin-left:4px;&quot;&gt;+ Create(): Event&lt;br&gt;+ Publish(): void&lt;/p&gt;&lt;p style=&quot;margin:0px;margin-left:4px;&quot;&gt;+UpdateDescription(EventDescription newDescription) : void&lt;/p&gt;&lt;p style=&quot;margin:0px;margin-left:4px;&quot;&gt;+UpdateTitle(EventTitle newTitle) : void&lt;/p&gt;&lt;p style=&quot;margin:0px;margin-left:4px;&quot;&gt;+UpdateTimeRange(EventTimeRange timeRange) : void&lt;/p&gt;&lt;p style=&quot;margin:0px;margin-left:4px;&quot;&gt;+MakePublic() : void&lt;/p&gt;&lt;p style=&quot;margin:0px;margin-left:4px;&quot;&gt;+MakePrivate() : void&lt;/p&gt;&lt;p style=&quot;margin:0px;margin-left:4px;&quot;&gt;+SetMaxGuests(int maxGuests) : void&lt;/p&gt;&lt;p style=&quot;margin:0px;margin-left:4px;&quot;&gt;+ReadyEvent() : void&lt;/p&gt;&lt;p style=&quot;margin:0px;margin-left:4px;&quot;&gt;+ActivateEvent() : void&lt;/p&gt;&lt;p style=&quot;margin:0px;margin-left:4px;&quot;&gt;+Participate(GuestId guestId) : void&lt;/p&gt;&lt;p style=&quot;margin:0px;margin-left:4px;&quot;&gt;+CancelParticipation(GuestId guestId) : void&lt;/p&gt;&lt;p style=&quot;margin:0px;margin-left:4px;&quot;&gt;+InviteGuest(GuestId guestId) : void&lt;br&gt;+AcceptInvitation(GuestId guestId) : void&lt;/p&gt;&lt;p style=&quot;margin:0px;margin-left:4px;&quot;&gt;+DeclineInvitation(GuestId guestId) : void&lt;/p&gt;&lt;p style=&quot;margin:0px;margin-left:4px;&quot;&gt;#GetParticipants() : void&lt;/p&gt;&lt;p style=&quot;margin:0px;margin-left:4px;&quot;&gt;#GetInvitedGuests() : void&lt;/p&gt;&lt;p style=&quot;margin:0px;margin-left:4px;&quot;&gt;#GetDeclinedGuests() : void&lt;/p&gt;" style="verticalAlign=top;align=left;overflow=fill;html=1;whiteSpace=wrap;fillColor=#d5e8d4;strokeColor=#82b366;" vertex="1" parent="1">
          <mxGeometry x="340" y="50" width="360" height="470" as="geometry" />
        </mxCell>
        <mxCell id="ix8DdHgYmFvAvDDHEddg-51" style="edgeStyle=orthogonalEdgeStyle;rounded=0;orthogonalLoop=1;jettySize=auto;html=1;entryX=1;entryY=0.5;entryDx=0;entryDy=0;" edge="1" parent="1" source="ix8DdHgYmFvAvDDHEddg-11" target="ix8DdHgYmFvAvDDHEddg-15">
          <mxGeometry relative="1" as="geometry">
            <Array as="points">
              <mxPoint x="880" y="180" />
              <mxPoint x="880" y="180" />
            </Array>
          </mxGeometry>
        </mxCell>
        <mxCell id="ix8DdHgYmFvAvDDHEddg-57" style="edgeStyle=orthogonalEdgeStyle;rounded=0;orthogonalLoop=1;jettySize=auto;html=1;entryX=0.5;entryY=1;entryDx=0;entryDy=0;" edge="1" parent="1" source="ix8DdHgYmFvAvDDHEddg-11" target="ix8DdHgYmFvAvDDHEddg-35">
          <mxGeometry relative="1" as="geometry" />
        </mxCell>
        <mxCell id="ix8DdHgYmFvAvDDHEddg-58" style="edgeStyle=orthogonalEdgeStyle;rounded=0;orthogonalLoop=1;jettySize=auto;html=1;entryX=0;entryY=0.5;entryDx=0;entryDy=0;" edge="1" parent="1" source="ix8DdHgYmFvAvDDHEddg-11" target="ix8DdHgYmFvAvDDHEddg-19">
          <mxGeometry relative="1" as="geometry" />
        </mxCell>
        <mxCell id="ix8DdHgYmFvAvDDHEddg-11" value="&lt;p style=&quot;margin: 4px 0px 0px; text-align: center;&quot;&gt;&lt;i&gt;&amp;lt;&amp;lt;Entity&lt;/i&gt;&lt;i style=&quot;background-color: transparent; color: light-dark(rgb(0, 0, 0), rgb(255, 255, 255));&quot;&gt;&amp;gt;&amp;gt;&lt;/i&gt;&lt;/p&gt;&lt;p style=&quot;margin: 4px 0px 0px; text-align: center;&quot;&gt;&lt;b&gt;Invitation&lt;/b&gt;&lt;/p&gt;&lt;hr style=&quot;border-style: solid;&quot; size=&quot;1&quot;&gt;&lt;p style=&quot;margin: 0px 0px 0px 4px;&quot;&gt;+ eventId: EventId&lt;/p&gt;&lt;p style=&quot;margin: 0px 0px 0px 4px;&quot;&gt;+ guestId: GuestId&lt;/p&gt;&lt;p style=&quot;margin: 0px 0px 0px 4px;&quot;&gt;+ status : InvitationStatus&lt;br&gt;-&amp;nbsp; _cache : Dictionary&amp;lt;(EventID, GuestID), Invitation&amp;gt;&lt;/p&gt;&lt;hr size=&quot;1&quot; style=&quot;border-style:solid;&quot;&gt;&lt;p style=&quot;margin:0px;margin-left:4px;&quot;&gt;+ Create(EventID, GuestID) : Invitation&amp;nbsp;&lt;/p&gt;&lt;p style=&quot;margin:0px;margin-left:4px;&quot;&gt;+ Accept() : void&lt;/p&gt;&lt;p style=&quot;margin:0px;margin-left:4px;&quot;&gt;+ Decline() : void&lt;/p&gt;" style="verticalAlign=top;align=left;overflow=fill;html=1;whiteSpace=wrap;fillColor=#dae8fc;strokeColor=#6c8ebf;" vertex="1" parent="1">
          <mxGeometry x="890" y="130" width="190" height="220" as="geometry" />
        </mxCell>
        <mxCell id="ix8DdHgYmFvAvDDHEddg-13" value="" style="endArrow=open;html=1;endSize=12;startArrow=diamondThin;startSize=14;startFill=1;edgeStyle=orthogonalEdgeStyle;align=left;verticalAlign=bottom;rounded=0;" edge="1" parent="1">
          <mxGeometry x="-1" y="3" relative="1" as="geometry">
            <mxPoint x="700" y="255" as="sourcePoint" />
            <mxPoint x="890" y="255" as="targetPoint" />
          </mxGeometry>
        </mxCell>
        <mxCell id="ix8DdHgYmFvAvDDHEddg-20" value="" style="edgeStyle=orthogonalEdgeStyle;rounded=0;orthogonalLoop=1;jettySize=auto;html=1;" edge="1" parent="1" source="ix8DdHgYmFvAvDDHEddg-14" target="ix8DdHgYmFvAvDDHEddg-19">
          <mxGeometry relative="1" as="geometry" />
        </mxCell>
        <mxCell id="ix8DdHgYmFvAvDDHEddg-25" style="edgeStyle=orthogonalEdgeStyle;rounded=0;orthogonalLoop=1;jettySize=auto;html=1;entryX=0.5;entryY=0;entryDx=0;entryDy=0;" edge="1" parent="1" source="ix8DdHgYmFvAvDDHEddg-14" target="ix8DdHgYmFvAvDDHEddg-22">
          <mxGeometry relative="1" as="geometry" />
        </mxCell>
        <mxCell id="ix8DdHgYmFvAvDDHEddg-26" style="edgeStyle=orthogonalEdgeStyle;rounded=0;orthogonalLoop=1;jettySize=auto;html=1;entryX=0.5;entryY=0;entryDx=0;entryDy=0;" edge="1" parent="1" source="ix8DdHgYmFvAvDDHEddg-14" target="ix8DdHgYmFvAvDDHEddg-23">
          <mxGeometry relative="1" as="geometry" />
        </mxCell>
        <mxCell id="ix8DdHgYmFvAvDDHEddg-14" value="&lt;p style=&quot;margin:0px;margin-top:4px;text-align:center;&quot;&gt;&lt;i&gt;&amp;lt;&amp;lt;Aggregate&amp;gt;&amp;gt;&lt;/i&gt;&lt;br&gt;&lt;b&gt;Guest&lt;/b&gt;&lt;/p&gt;&lt;hr size=&quot;1&quot; style=&quot;border-style:solid;&quot;&gt;&lt;p style=&quot;margin:0px;margin-left:4px;&quot;&gt;# email : Email&lt;br&gt;# firstName : Name&lt;/p&gt;&lt;p style=&quot;margin:0px;margin-left:4px;&quot;&gt;# lastName : Name&lt;/p&gt;&lt;p style=&quot;margin:0px;margin-left:4px;&quot;&gt;# profilePictureUrl : Uri&lt;br&gt;&lt;/p&gt;&lt;hr size=&quot;1&quot; style=&quot;border-style:solid;&quot;&gt;&lt;p style=&quot;margin:0px;margin-left:4px;&quot;&gt;+ Create(email string, firstname string, lastname string, profilePictureUrl string): Guest&lt;br&gt;&lt;/p&gt;" style="verticalAlign=top;align=left;overflow=fill;html=1;whiteSpace=wrap;fillColor=#d5e8d4;strokeColor=#82b366;" vertex="1" parent="1">
          <mxGeometry x="1305" y="15" width="190" height="200" as="geometry" />
        </mxCell>
        <mxCell id="ix8DdHgYmFvAvDDHEddg-15" value="&lt;p style=&quot;margin:0px;margin-top:4px;text-align:center;&quot;&gt;&lt;i&gt;&amp;lt;&amp;lt;value&amp;gt;&amp;gt;&lt;/i&gt;&lt;br&gt;&lt;b&gt;EventID&lt;/b&gt;&lt;/p&gt;&lt;hr size=&quot;1&quot; style=&quot;border-style:solid;&quot;&gt;&lt;p style=&quot;margin:0px;margin-left:4px;&quot;&gt;- Value : Guid&lt;/p&gt;" style="verticalAlign=top;align=left;overflow=fill;html=1;whiteSpace=wrap;fillColor=#fff2cc;strokeColor=#d6b656;" vertex="1" parent="1">
          <mxGeometry x="730" y="145" width="120" height="70" as="geometry" />
        </mxCell>
        <mxCell id="ix8DdHgYmFvAvDDHEddg-19" value="&lt;p style=&quot;margin:0px;margin-top:4px;text-align:center;&quot;&gt;&lt;i&gt;&amp;lt;&amp;lt;value&amp;gt;&amp;gt;&lt;/i&gt;&lt;br&gt;&lt;b&gt;GuestID&lt;/b&gt;&lt;/p&gt;&lt;hr size=&quot;1&quot; style=&quot;border-style:solid;&quot;&gt;&lt;p style=&quot;margin:0px;margin-left:4px;&quot;&gt;- Value : Guid&lt;/p&gt;&lt;p style=&quot;margin:0px;margin-left:4px;&quot;&gt;&lt;br&gt;&lt;/p&gt;" style="verticalAlign=top;align=left;overflow=fill;html=1;whiteSpace=wrap;fillColor=#fff2cc;strokeColor=#d6b656;" vertex="1" parent="1">
          <mxGeometry x="1170" y="270" width="120" height="80" as="geometry" />
        </mxCell>
        <mxCell id="ix8DdHgYmFvAvDDHEddg-22" value="&lt;p style=&quot;margin:0px;margin-top:4px;text-align:center;&quot;&gt;&lt;i&gt;&amp;lt;&amp;lt;value&amp;gt;&amp;gt;&lt;/i&gt;&lt;br&gt;&lt;b&gt;Email&lt;/b&gt;&lt;/p&gt;&lt;hr size=&quot;1&quot; style=&quot;border-style:solid;&quot;&gt;&lt;p style=&quot;margin:0px;margin-left:4px;&quot;&gt;- Value : String&lt;/p&gt;&lt;p style=&quot;margin:0px;margin-left:4px;&quot;&gt;&lt;br&gt;&lt;/p&gt;" style="verticalAlign=top;align=left;overflow=fill;html=1;whiteSpace=wrap;fillColor=#fff2cc;strokeColor=#d6b656;" vertex="1" parent="1">
          <mxGeometry x="1340" y="270" width="120" height="80" as="geometry" />
        </mxCell>
        <mxCell id="ix8DdHgYmFvAvDDHEddg-23" value="&lt;p style=&quot;margin:0px;margin-top:4px;text-align:center;&quot;&gt;&lt;i&gt;&amp;lt;&amp;lt;value&amp;gt;&amp;gt;&lt;/i&gt;&lt;br&gt;&lt;b&gt;Name&lt;/b&gt;&lt;/p&gt;&lt;hr size=&quot;1&quot; style=&quot;border-style:solid;&quot;&gt;&lt;p style=&quot;margin:0px;margin-left:4px;&quot;&gt;- Value : String&lt;/p&gt;" style="verticalAlign=top;align=left;overflow=fill;html=1;whiteSpace=wrap;fillColor=#fff2cc;strokeColor=#d6b656;" vertex="1" parent="1">
          <mxGeometry x="1500" y="270" width="120" height="80" as="geometry" />
        </mxCell>
        <mxCell id="ix8DdHgYmFvAvDDHEddg-30" value="&lt;p style=&quot;margin:0px;margin-top:4px;text-align:center;&quot;&gt;&lt;i&gt;&amp;lt;&amp;lt;value&amp;gt;&amp;gt;&lt;/i&gt;&lt;br&gt;&lt;b&gt;EventTitle&lt;/b&gt;&lt;/p&gt;&lt;hr size=&quot;1&quot; style=&quot;border-style:solid;&quot;&gt;&lt;p style=&quot;margin:0px;margin-left:4px;&quot;&gt;- Value : String&lt;/p&gt;" style="verticalAlign=top;align=left;overflow=fill;html=1;whiteSpace=wrap;fillColor=#fff2cc;strokeColor=#d6b656;" vertex="1" parent="1">
          <mxGeometry x="180" y="20" width="120" height="80" as="geometry" />
        </mxCell>
        <mxCell id="ix8DdHgYmFvAvDDHEddg-31" value="&lt;p style=&quot;margin:0px;margin-top:4px;text-align:center;&quot;&gt;&lt;i&gt;&amp;lt;&amp;lt;value&amp;gt;&amp;gt;&lt;/i&gt;&lt;br&gt;&lt;b&gt;EventStatus&lt;/b&gt;&lt;/p&gt;&lt;hr size=&quot;1&quot; style=&quot;border-style:solid;&quot;&gt;&lt;p style=&quot;margin:0px;margin-left:4px;&quot;&gt;- Value : ENUM&lt;/p&gt;" style="verticalAlign=top;align=left;overflow=fill;html=1;whiteSpace=wrap;fillColor=#fff2cc;strokeColor=#d6b656;" vertex="1" parent="1">
          <mxGeometry x="180" y="125" width="120" height="80" as="geometry" />
        </mxCell>
        <mxCell id="ix8DdHgYmFvAvDDHEddg-32" value="&lt;p style=&quot;margin:0px;margin-top:4px;text-align:center;&quot;&gt;&lt;i&gt;&amp;lt;&amp;lt;value&amp;gt;&amp;gt;&lt;/i&gt;&lt;br&gt;&lt;b&gt;EventDescription&lt;/b&gt;&lt;/p&gt;&lt;hr size=&quot;1&quot; style=&quot;border-style:solid;&quot;&gt;&lt;p style=&quot;margin:0px;margin-left:4px;&quot;&gt;- Value : String&lt;/p&gt;" style="verticalAlign=top;align=left;overflow=fill;html=1;whiteSpace=wrap;fillColor=#fff2cc;strokeColor=#d6b656;" vertex="1" parent="1">
          <mxGeometry x="180" y="225" width="120" height="80" as="geometry" />
        </mxCell>
        <mxCell id="ix8DdHgYmFvAvDDHEddg-33" value="&lt;p style=&quot;margin:0px;margin-top:4px;text-align:center;&quot;&gt;&lt;i&gt;&amp;lt;&amp;lt;value&amp;gt;&amp;gt;&lt;/i&gt;&lt;br&gt;&lt;b&gt;EventTimeRange&lt;/b&gt;&lt;/p&gt;&lt;hr size=&quot;1&quot; style=&quot;border-style:solid;&quot;&gt;&lt;p style=&quot;margin:0px;margin-left:4px;&quot;&gt;- Value : DateTime, DateTime, ISystemTime&lt;/p&gt;" style="verticalAlign=top;align=left;overflow=fill;html=1;whiteSpace=wrap;fillColor=#fff2cc;strokeColor=#d6b656;" vertex="1" parent="1">
          <mxGeometry x="180" y="420" width="130" height="110" as="geometry" />
        </mxCell>
        <mxCell id="ix8DdHgYmFvAvDDHEddg-34" value="&lt;p style=&quot;margin:0px;margin-top:4px;text-align:center;&quot;&gt;&lt;i&gt;&amp;lt;&amp;lt;value&amp;gt;&amp;gt;&lt;/i&gt;&lt;br&gt;&lt;b&gt;EventVisibility&lt;/b&gt;&lt;/p&gt;&lt;hr size=&quot;1&quot; style=&quot;border-style:solid;&quot;&gt;&lt;p style=&quot;margin:0px;margin-left:4px;&quot;&gt;- Value : ENUM&lt;/p&gt;" style="verticalAlign=top;align=left;overflow=fill;html=1;whiteSpace=wrap;fillColor=#fff2cc;strokeColor=#d6b656;" vertex="1" parent="1">
          <mxGeometry x="180" y="325" width="120" height="80" as="geometry" />
        </mxCell>
        <mxCell id="ix8DdHgYmFvAvDDHEddg-35" value="&lt;p style=&quot;margin:0px;margin-top:4px;text-align:center;&quot;&gt;&lt;i&gt;&amp;lt;&amp;lt;value&amp;gt;&amp;gt;&lt;/i&gt;&lt;br&gt;&lt;b&gt;InvitationStatus&lt;/b&gt;&lt;/p&gt;&lt;hr size=&quot;1&quot; style=&quot;border-style:solid;&quot;&gt;&lt;p style=&quot;margin:0px;margin-left:4px;&quot;&gt;- Value : ENUM&lt;/p&gt;" style="verticalAlign=top;align=left;overflow=fill;html=1;whiteSpace=wrap;fillColor=#fff2cc;strokeColor=#d6b656;" vertex="1" parent="1">
          <mxGeometry x="925" y="20" width="120" height="80" as="geometry" />
        </mxCell>
        <mxCell id="ix8DdHgYmFvAvDDHEddg-49" value="frame" style="shape=umlFrame;whiteSpace=wrap;html=1;pointerEvents=0;" vertex="1" parent="1">
          <mxGeometry x="100" y="10" width="1020" height="540" as="geometry" />
        </mxCell>
        <mxCell id="ix8DdHgYmFvAvDDHEddg-59" value="frame" style="shape=umlFrame;whiteSpace=wrap;html=1;pointerEvents=0;" vertex="1" parent="1">
          <mxGeometry x="1140" y="10" width="530" height="400" as="geometry" />
        </mxCell>
      </root>
    </mxGraphModel>
  </diagram>
</mxfile>
